<svg width="448" height="431" viewBox="0 0 448 431" fill="none" xmlns="http://www.w3.org/2000/svg">
<path d="M224 341.333C271.128 341.333 309.333 303.128 309.333 256C309.333 208.872 271.128 170.667 224 170.667C176.872 170.667 138.667 208.872 138.667 256C138.667 303.128 176.872 341.333 224 341.333ZM235.314 4.68628C229.065 -1.5621 218.935 -1.5621 212.686 4.68628L110.863 106.51C104.615 112.758 104.615 122.889 110.863 129.137C117.111 135.385 127.242 135.385 133.49 129.137L224 38.6274L314.51 129.137C320.758 135.385 330.889 135.385 337.137 129.137C343.385 122.889 343.385 112.758 337.137 106.51L235.314 4.68628ZM240 256V16H208V256H240Z" fill="black"/>
<path d="M149.953 213.586C126.389 254.4 140.373 306.589 181.187 330.154C222.001 353.718 274.19 339.734 297.754 298.919C321.319 258.105 307.335 205.916 266.52 182.352C225.706 158.788 173.517 172.772 149.953 213.586ZM435.841 391.708C444.376 389.421 449.442 380.647 447.155 372.112L409.885 233.018C407.598 224.483 398.824 219.418 390.289 221.705C381.753 223.992 376.688 232.765 378.975 241.301L412.104 364.939L288.465 398.068C279.93 400.355 274.865 409.128 277.152 417.664C279.439 426.199 288.212 431.265 296.748 428.978L435.841 391.708ZM215.854 270.109L423.7 390.109L439.7 362.396L231.854 242.396L215.854 270.109Z" fill="black"/>
<path d="M297.747 214.333C274.183 173.519 221.994 159.535 181.179 183.099C140.365 206.663 126.381 258.852 149.945 299.667C173.509 340.481 225.698 354.465 266.513 330.901C307.327 307.337 321.311 255.148 297.747 214.333ZM0.545183 372.859C-1.74188 381.394 3.32344 390.168 11.8589 392.455L150.952 429.725C159.488 432.012 168.261 426.947 170.548 418.411C172.835 409.876 167.77 401.102 159.234 398.815L35.5959 365.686L68.7247 242.048C71.0118 233.512 65.9465 224.739 57.411 222.452C48.8756 220.165 40.1022 225.23 37.8151 233.766L0.545183 372.859ZM215.846 243.144L7.99999 363.144L24 390.856L231.846 270.856L215.846 243.144Z" fill="black"/>
</svg>
